Coordinates
version=1
nRows=7
nColumns=40
inDegrees=yes

Units are S.I. units (second, meters, Newtons, ...)
If the header above contains a line with 'inDegrees', this indicates whether rotational values are in degrees (yes) or radians (no).

endheader
time	pelvis_tilt	pelvis_list	pelvis_rotation	pelvis_tx	pelvis_ty	pelvis_tz	hip_flexion_r	hip_adduction_r	hip_rotation_r	knee_angle_r	knee_angle_r_beta	ankle_angle_r	subtalar_angle_r	mtp_angle_r	hip_flexion_l	hip_adduction_l	hip_rotation_l	knee_angle_l	knee_angle_l_beta	ankle_angle_l	subtalar_angle_l	mtp_angle_l	lumbar_extension	lumbar_bending	lumbar_rotation	arm_flex_r	arm_add_r	arm_rot_r	elbow_flex_r	pro_sup_r	wrist_flex_r	wrist_dev_r	arm_flex_l	arm_add_l	arm_rot_l	elbow_flex_l	pro_sup_l	wrist_flex_l	wrist_dev_l
      0.60500000	    -13.58393442	      1.61259705	     -3.28968613	      0.17101833	      0.73292325	     -1.20092770	     59.93195959	    -35.26536189	    -11.72904569	     73.05242360	      1.27500532	     15.38109273	     -3.82683457	      0.00000000	     54.88759492	    -40.41283325	    -22.13748983	     72.58187412	      1.26679268	     16.39083780	      7.68030670	      0.00000000	      0.00000000	      0.00000000	      0.00000000	     44.99965074	    -15.00001086	     44.99965074	     75.00017599	     45.00000026	      0.00000000	      0.00000000	     44.99965074	    -15.00001086	     44.99965074	     75.00017599	     45.00000026	      0.00000000	      0.00000000
      0.61000000	    -13.93927594	      1.50452841	     -3.13396294	      0.17015683	      0.72933336	     -1.20116590	     60.73448520	    -35.42262904	    -11.59832625	     73.72392957	      1.28672531	     15.58989095	     -3.81222479	      0.00000000	     56.05781105	    -40.56292687	    -21.47428032	     73.26623667	      1.27873706	     16.50668217	      7.56661695	      0.00000000	      0.00000000	      0.00000000	      0.00000000	     44.99965233	    -15.00001076	     44.99965233	     75.00017598	     45.00000026	      0.00000000	      0.00000000	     44.99965233	    -15.00001076	     44.99965233	     75.00017598	     45.00000026	      0.00000000	      0.00000000
      0.61500000	    -13.76979966	      1.46442600	     -3.05541785	      0.16975126	      0.72728098	     -1.20131955	     60.87660608	    -35.60670380	    -11.46986440	     74.20253192	      1.29507850	     15.76606969	     -3.72876356	      0.00000000	     56.30222888	    -40.72784509	    -21.22092718	     73.75887798	      1.28733527	     16.71114174	      7.85410639	      0.00000000	      0.00000000	      0.00000000	      0.00000000	     44.99965335	    -15.00001070	     44.99965335	     75.00017598	     45.00000026	      0.00000000	      0.00000000	     44.99965335	    -15.00001070	     44.99965335	     75.00017598	     45.00000026	      0.00000000	      0.00000000
      0.62000000	    -13.66197843	      1.42242439	     -2.95651765	      0.16932175	      0.72503388	     -1.20149014	     61.10580881	    -35.79269545	    -11.31128853	     74.72581238	      1.30421146	     15.97834296	     -3.63613241	      0.00000000	     56.65338197	    -40.88779736	    -20.94726091	     74.26971678	      1.29625109	     16.88848766	      8.02007318	      0.00000000	      0.00000000	      0.00000000	      0.00000000	     44.99965438	    -15.00001063	     44.99965438	     75.00017598	     45.00000026	      0.00000000	      0.00000000	     44.99965438	    -15.00001063	     44.99965438	     75.00017598	     45.00000026	      0.00000000	      0.00000000
      0.62500000	    -14.16254338	      1.32243926	     -2.79353063	      0.16829074	      0.72097217	     -1.20180666	     62.12372781	    -35.96775209	    -11.14643603	     75.41509927	      1.31624179	     16.11969519	     -3.62234120	      0.00000000	     58.08080947	    -40.97640774	    -20.13594291	     75.00341320	      1.30905651	     16.99332376	      7.93853540	      0.00000000	      0.00000000	      0.00000000	      0.00000000	     44.99965629	    -15.00001051	     44.99965629	     75.00017598	     45.00000026	      0.00000000	      0.00000000	     44.99965629	    -15.00001051	     44.99965629	     75.00017598	     45.00000026	      0.00000000	      0.00000000
      0.63000000	    -13.97573366	      1.28583379	     -2.69625978	      0.16797016	      0.71894861	     -1.20202842	     62.23382245	    -36.17863160	    -11.02089696	     75.89645383	      1.32464301	     16.35007638	     -3.50142835	      0.00000000	     58.30304656	    -41.12869802	    -19.91320675	     75.48888936	      1.31752967	     17.19659588	      8.18141396	      0.00000000	      0.00000000	      0.00000000	      0.00000000	     44.99965727	    -15.00001045	     44.99965727	     75.00017598	     45.00000026	      0.00000000	      0.00000000	     44.99965727	    -15.00001045	     44.99965727	     75.00017598	     45.00000026	      0.00000000	      0.00000000
      0.63500000	    -14.23414425	      1.21666035	     -2.53932366	      0.16717585	      0.71558957	     -1.20231787	     62.94232478	    -36.39537040	    -10.86611721	     76.51718489	      1.33547681	     16.51319537	     -3.42031742	      0.00000000	     59.31968015	    -41.19491897	    -19.27802197	     76.12103159	      1.32856263	     17.30694218	      8.15777731	      0.00000000	      0.00000000	      0.00000000	      0.00000000	     44.99965895	    -15.00001034	     44.99965895	     75.00017597	     45.00000026	      0.00000000	      0.00000000	     44.99965895	    -15.00001034	     44.99965895	     75.00017597	     45.00000026	      0.00000000	      0.00000000
